<svg xmlns="http://www.w3.org/2000/svg" xmlns:xlink="http://www.w3.org/1999/xlink" width="150" height="20"
   aria-label="Treedom: Plant a Tree">
   <linearGradient id="prefix__b" x2="0" y2="100%">
      <stop offset="0" stop-color="#bbb" stop-opacity=".1" />
      <stop offset="1" stop-opacity=".1" />
   </linearGradient>
   <clipPath id="prefix__a">
      <rect width="93" height="20" rx="3" fill="#fff" />
   </clipPath>
   <g clip-path="url(#prefix__a)">
      <path fill="#555" d="M0 0h20v20H0z" />
      <path fill="#4c1" d="M20 0h73v20H20z" />
      <path fill="url(#prefix__b)" d="M0 0h93v20H0z" />
   </g>
   <g fill="#fff" text-anchor="middle" font-family="Verdana,Geneva,DejaVu Sans,sans-serif"
      text-rendering="geometricPrecision" font-size="110"><svg width="20" height="20" viewBox="0 0 24 24">
         <path
            d="M11 21v-4.26c-.47.17-.97.26-1.5.26C7 17 5 15 5 12.5c0-1.27.5-2.41 1.36-3.23C6.13 8.73 6 8.13 6 7.5 6 5 8 3 10.5 3c1.56 0 2.94.8 3.75 2h.25a5.5 5.5 0 015.5 5.5 5.5 5.5 0 01-5.5 5.5c-.5 0-1-.07-1.5-.21V21h-2z" />
         </svg><text x="550" y="140" transform="scale(.1)" textLength="630">Plant a Tree</text></g>
</svg>